<svg xmlns="http://www.w3.org/2000/svg" width="110" height="42" fill="none" viewBox="0 0 110 42">
    <g filter="url(#filter0_d)">
        <path fill="#B7B7B7" d="M97.876 0H11.194c-.264 0-.52.009-.784.009-.571.017-1.142.05-1.705.152-.57.103-1.1.273-1.62.536-.51.255-.98.595-1.38 1.003-.41.4-.75.867-1.006 1.377-.264.518-.435 1.045-.537 1.615-.102.561-.136 1.13-.153 1.7 0 .263-.009.527-.009.782v19.644c0 .263.009.518.017.781.017.57.051 1.14.153 1.7.103.57.265 1.105.537 1.616.256.51.597.969 1.006 1.368.401.408.87.748 1.381 1.003.52.264 1.049.433 1.62.535.562.102 1.142.137 1.705.154.255.017.511.025.775.025H98.797c.256 0 .529 0 .784-.008.571-.017 1.143-.051 1.705-.153.571-.102 1.1-.273 1.628-.536.512-.255.972-.595 1.381-1.003.409-.4.742-.867 1.006-1.368.264-.519.435-1.046.529-1.615.102-.561.136-1.131.161-1.7v-.783c.009-.305.009-.611.009-.926V8.109c0-.314 0-.62-.009-.926V6.4c-.017-.57-.051-1.14-.161-1.7-.094-.57-.265-1.097-.529-1.615-.264-.51-.605-.978-1.006-1.377-.4-.4-.869-.74-1.381-1.004-.528-.263-1.057-.433-1.628-.535-.562-.102-1.134-.136-1.705-.153-.255 0-.528-.009-.784-.009C98.5 0 98.183 0 97.877 0z"/>
        <path fill="#000001" d="M11.194 33.252c-.255 0-.511 0-.767-.009-.477-.017-1.04-.042-1.594-.136-.52-.093-.98-.246-1.415-.467-.443-.221-.844-.519-1.193-.867-.35-.349-.64-.74-.87-1.19-.221-.425-.375-.892-.46-1.411-.102-.57-.128-1.156-.145-1.598-.008-.179-.008-.774-.008-.774V7.174s.008-.586.008-.756c.017-.442.043-1.029.145-1.59.094-.527.247-.986.469-1.411.23-.442.52-.841.87-1.19.349-.357.75-.646 1.184-.867.435-.221.904-.374 1.407-.459.58-.11 1.16-.136 1.602-.144l.768-.009h87.602l.776.009c.435.008 1.023.034 1.585.136.512.093.981.238 1.424.467.435.221.835.519 1.185.867.349.349.639.748.869 1.19.222.434.367.893.461 1.403.102.535.127 1.088.144 1.606v.757c.009.323.009.62.009.926V25.9c0 .306 0 .613-.009.918v.791c-.017.502-.051 1.054-.144 1.572-.086.519-.239.986-.461 1.42-.23.442-.52.841-.869 1.181-.35.358-.75.647-1.194.867-.443.221-.895.374-1.423.468-.546.102-1.108.127-1.594.136-.247.008-.512.008-.767.008h-.92l-86.674-.008z"/>
        <path fill="#fff" d="M25.114 17.255c-.025-2.337 1.918-3.476 2.012-3.527-1.1-1.598-2.804-1.82-3.401-1.836-1.432-.153-2.822.85-3.546.85-.742 0-1.867-.842-3.077-.816-1.56.025-3.018.926-3.81 2.32-1.646 2.848-.418 7.03 1.159 9.333.792 1.13 1.713 2.389 2.923 2.338 1.185-.051 1.629-.748 3.052-.748 1.415 0 1.824.748 3.06.722 1.27-.017 2.072-1.13 2.83-2.27.912-1.291 1.279-2.566 1.296-2.626-.043-.008-2.472-.935-2.498-3.74zM22.787 10.379c.64-.79 1.074-1.87.946-2.967-.92.043-2.071.638-2.736 1.411-.588.68-1.108 1.802-.972 2.856 1.032.077 2.097-.518 2.762-1.3zM40.057 23.07h-4.032l-.971 2.855h-1.705l3.819-10.557h1.773l3.818 10.557H41.02l-.963-2.856zm-3.614-1.318h3.197l-1.578-4.633h-.042l-1.577 4.633zM51.02 22.075c0 2.388-1.288 3.927-3.223 3.927-1.1 0-1.97-.493-2.43-1.343h-.033v3.808h-1.586V18.224h1.534v1.284h.026c.443-.825 1.38-1.36 2.455-1.36 1.969 0 3.256 1.538 3.256 3.927zm-1.629 0c0-1.556-.81-2.584-2.037-2.584-1.21 0-2.029 1.045-2.029 2.584 0 1.547.818 2.592 2.029 2.592 1.227 0 2.037-1.02 2.037-2.592zM59.51 22.075c0 2.388-1.288 3.927-3.223 3.927-1.1 0-1.969-.493-2.43-1.343h-.033v3.808h-1.577V18.224h1.534v1.284h.026c.443-.825 1.38-1.36 2.454-1.36 1.961 0 3.248 1.538 3.248 3.927zm-1.629 0c0-1.556-.81-2.584-2.037-2.584-1.21 0-2.029 1.045-2.029 2.584 0 1.547.818 2.592 2.029 2.592 1.236 0 2.037-1.02 2.037-2.592zM65.127 22.984c.119 1.046 1.133 1.734 2.531 1.734 1.339 0 2.293-.688 2.293-1.632 0-.816-.58-1.309-1.952-1.649l-1.372-.331c-1.944-.468-2.847-1.377-2.847-2.848 0-1.819 1.594-3.068 3.853-3.068 2.233 0 3.767 1.25 3.819 3.068h-1.603c-.094-1.054-.972-1.691-2.242-1.691s-2.148.646-2.148 1.58c0 .749.554 1.182 1.918 1.522l1.168.29c2.174.51 3.077 1.385 3.077 2.923 0 1.972-1.577 3.213-4.083 3.213-2.344 0-3.93-1.207-4.032-3.12h1.62v.01zM75.049 16.405v1.82h1.466v1.249h-1.466v4.241c0 .663.29.97.937.97.162 0 .418-.026.52-.035v1.241c-.179.043-.528.077-.878.077-1.56 0-2.173-.587-2.173-2.074v-4.412H72.33v-1.25h1.125v-1.827h1.594zM77.359 22.075c0-2.423 1.432-3.944 3.657-3.944 2.233 0 3.657 1.521 3.657 3.944 0 2.43-1.415 3.944-3.657 3.944-2.234 0-3.657-1.513-3.657-3.944zm5.711 0c0-1.658-.767-2.644-2.046-2.644-1.278 0-2.046.986-2.046 2.644 0 1.666.76 2.643 2.046 2.643 1.287 0 2.046-.977 2.046-2.643zM85.994 18.224h1.509v1.31h.034c.238-.868.946-1.395 1.858-1.395.23 0 .418.034.546.06v1.479c-.128-.051-.401-.094-.708-.094-1.023 0-1.654.689-1.654 1.768v4.565h-1.585v-7.693zM97.237 23.664c-.213 1.394-1.577 2.355-3.324 2.355-2.242 0-3.64-1.496-3.64-3.91s1.398-3.978 3.572-3.978c2.13 0 3.477 1.462 3.477 3.8v.543h-5.447v.094c0 1.317.827 2.176 2.08 2.176.878 0 1.569-.417 1.782-1.08h1.5zm-5.353-2.303h3.862c-.035-1.182-.793-1.955-1.893-1.955-1.091.008-1.884.799-1.969 1.955zM36.247 7.42c1.509 0 2.395.927 2.395 2.517 0 1.623-.878 2.55-2.395 2.55h-1.841V7.42h1.841zm-1.048 4.353h.954c1.066 0 1.68-.663 1.68-1.828 0-1.147-.623-1.81-1.68-1.81H35.2v3.638zM39.529 10.574c0-1.233.69-1.989 1.807-1.989s1.807.748 1.807 1.989-.69 1.989-1.807 1.989-1.807-.748-1.807-1.989zm2.838 0c0-.833-.375-1.318-1.031-1.318-.656 0-1.032.485-1.032 1.318 0 .833.367 1.318 1.032 1.318s1.031-.485 1.031-1.318zM47.96 12.495h-.785l-.793-2.822h-.06l-.792 2.822h-.776L43.697 8.67h.767l.69 2.924h.06l.793-2.924h.725l.792 2.924h.06l.682-2.924h.759l-1.066 3.825zM49.903 8.662h.733v.612h.06c.187-.425.57-.68 1.142-.68.852 0 1.33.51 1.33 1.419v2.482h-.76v-2.286c0-.612-.264-.918-.826-.918-.563 0-.92.374-.92.968v2.236h-.76V8.662zM54.37 7.174h.758v5.321h-.759v-5.32zM56.185 10.574c0-1.233.69-1.989 1.807-1.989s1.807.748 1.807 1.989-.69 1.989-1.807 1.989c-1.125 0-1.807-.748-1.807-1.989zm2.839 0c0-.833-.376-1.318-1.032-1.318s-1.031.485-1.031 1.318c0 .833.366 1.318 1.031 1.318.657 0 1.032-.485 1.032-1.318zM60.6 11.407c0-.688.512-1.088 1.424-1.139l1.04-.06v-.331c0-.408-.264-.629-.784-.629-.426 0-.716.153-.801.425h-.733c.076-.654.698-1.08 1.568-1.08.963 0 1.509.477 1.509 1.284v2.618h-.733v-.535h-.06c-.23.382-.648.603-1.15.603-.742-.008-1.28-.45-1.28-1.156zm2.473-.323v-.323l-.938.06c-.529.034-.767.212-.767.552 0 .349.298.544.707.544.571 0 .998-.357.998-.833zM64.82 10.574c0-1.207.622-1.972 1.594-1.972.528 0 .972.247 1.176.672h.06v-2.1h.758v5.321h-.733v-.603h-.06c-.23.416-.673.671-1.201.671-.98-.008-1.594-.773-1.594-1.989zm.784 0c0 .816.384 1.3 1.023 1.3.64 0 1.031-.492 1.031-1.3 0-.799-.4-1.3-1.031-1.3-.64.008-1.023.501-1.023 1.3zM71.537 10.574c0-1.233.69-1.989 1.807-1.989s1.807.748 1.807 1.989-.69 1.989-1.807 1.989-1.807-.748-1.807-1.989zm2.838 0c0-.833-.375-1.318-1.031-1.318-.656 0-1.031.485-1.031 1.318 0 .833.366 1.318 1.031 1.318.656 0 1.031-.485 1.031-1.318zM76.174 8.662h.733v.612h.06c.187-.425.57-.68 1.142-.68.853 0 1.33.51 1.33 1.419v2.482h-.759v-2.286c0-.612-.264-.918-.827-.918-.562 0-.92.374-.92.968v2.236h-.759V8.662zM83.718 7.71v.968h.835v.638h-.835v1.972c0 .4.162.578.545.578.12 0 .18-.008.29-.017v.629c-.12.017-.264.043-.409.043-.844 0-1.176-.298-1.176-1.038V9.325h-.606v-.637h.606v-.978h.75zM85.576 7.174h.75v2.108h.06c.188-.425.588-.688 1.168-.688.818 0 1.321.518 1.321 1.428v2.473h-.759V10.21c0-.612-.28-.918-.818-.918-.622 0-.963.39-.963.969v2.235h-.759v-5.32zM93.3 11.458c-.171.688-.785 1.105-1.663 1.105-1.1 0-1.773-.748-1.773-1.972s.69-1.997 1.773-1.997c1.066 0 1.713.73 1.713 1.929v.264h-2.71v.042c.025.671.417 1.096 1.023 1.096.46 0 .775-.161.912-.467h.724zm-2.66-1.232h1.935c-.017-.604-.384-.995-.947-.995-.562 0-.946.4-.988.995z"/>
    </g>
    <defs>
        <filter id="filter0_d" width="110" height="42" x="0" y="0" color-interpolation-filters="sRGB" filterUnits="userSpaceOnUse">
            <feFlood flood-opacity="0" result="BackgroundImageFix"/>
            <feColorMatrix in="SourceAlpha" values="0 0 0 0 0 0 0 0 0 0 0 0 0 0 0 0 0 0 127 0"/>
            <feOffset dy="4"/>
            <feGaussianBlur stdDeviation="2"/>
            <feColorMatrix values="0 0 0 0 0 0 0 0 0 0 0 0 0 0 0 0 0 0 0.25 0"/>
            <feBlend in2="BackgroundImageFix" result="effect1_dropShadow"/>
            <feBlend in="SourceGraphic" in2="effect1_dropShadow" result="shape"/>
        </filter>
    </defs>
</svg>
