<?xml version="1.0" encoding="utf-8"?>
<!-- Generator: Adobe Illustrator 23.0.2, SVG Export Plug-In . SVG Version: 6.00 Build 0)  -->
<svg version="1.1" id="Layer_1" width="89" height="35" xmlns="http://www.w3.org/2000/svg" xmlns:xlink="http://www.w3.org/1999/xlink" x="0px" y="0px"
	 viewBox="0 0 51.4 20.2" style="enable-background:new 0 0 51.4 20.2;" xml:space="preserve">
<style type="text/css">
	.st0{fill:#5C6D84;}
</style>
<g>
	<g>
		<path class="st0" d="M49.6,20.2H1.7c-1,0-1.7-0.8-1.7-1.7V1.7C0,0.8,0.8,0,1.7,0h47.9c1,0,1.7,0.8,1.7,1.7v16.7
			C51.4,19.4,50.6,20.2,49.6,20.2z M1.7,0.6c-0.6,0-1.2,0.5-1.2,1.2v16.7c0,0.6,0.5,1.2,1.2,1.2h47.9c0.6,0,1.2-0.5,1.2-1.2V1.7
			c0-0.6-0.5-1.2-1.2-1.2H1.7z"/>
	</g>
	<path class="st0" d="M11.1,12.9c0-0.2-0.1-0.4-0.1-0.6c-0.1-0.2-0.2-0.3-0.5-0.4c-0.5-0.2-0.9-0.5-1.3-0.8
		c-0.1-0.1-0.1-0.2-0.1-0.3c0.9-1.1,1.8-2.1,2.7-3.2c0.6-0.7,1.2-1.3,1.7-2c0.1-0.1,0.2-0.2,0.3-0.1C15,6.5,16,7.3,17.1,8.3
		c0.1,0.1,0.1,0.1,0.2,0.2c0.2,0.2,0.2,0.2,0.1,0.5c-0.8,0.9-1.5,1.7-2.2,2.6c-1.2,1.4-2.3,2.7-3.5,4.1c-0.4,0.5-0.4,0.4-0.8,0.1
		c-0.9-0.8-1.8-1.5-2.7-2.3c-0.1-0.1-0.2-0.1-0.1-0.2c0-0.1,0.1-0.1,0.1-0.1c0.1,0,0.1,0,0.2,0c0.5,0.2,1,0.3,1.5,0.5
		c0.1,0.1,0.3,0.1,0.4,0.1c0.2,0,0.3-0.1,0.4-0.2c0.1-0.1,0.2-0.2,0.3-0.3C11.1,13.2,11.1,13,11.1,12.9L11.1,12.9z M12.7,12.3
		c0.2,0,0.5,0,0.6-0.1c0.2-0.1,0.3-0.2,0.5-0.4c0.1-0.2,0.2-0.4,0.2-0.6c0-0.2,0-0.5-0.1-0.6c-0.1-0.4-0.3-0.8-0.7-0.9
		c-0.3-0.2-0.8-0.3-1.2-0.2c-0.2,0.1-0.5,0.2-0.6,0.3c-0.2,0.2-0.3,0.3-0.4,0.6c-0.1,0.2-0.1,0.5,0,0.8c0.1,0.2,0.2,0.5,0.3,0.7
		c0.2,0.2,0.3,0.3,0.6,0.5C12.2,12.2,12.5,12.3,12.7,12.3L12.7,12.3z"/>
	<path class="st0" d="M5,10.6V9.2c0-0.3,0.1-0.3,0.3-0.3C5.7,8.8,6,8.8,6.3,8.7C6.6,8.5,7,8.5,7.4,8.4c0.8-0.2,1.5-0.2,2.3,0
		c0.3,0.1,0.6,0.1,0.9,0.2c0.2,0.1,0.2,0.1,0.1,0.2c-0.2,0.3-0.5,0.6-0.8,0.9c-0.2,0.2-0.4,0.5-0.6,0.7c-0.1,0.1-0.1,0.1-0.2,0.2
		c-0.1,0.1-0.1,0.1-0.2,0.1c-0.1,0-0.2,0-0.2,0c-0.1,0-0.3,0-0.3,0.2c-0.1,0.2,0.1,0.3,0.2,0.3c0.1,0.1,0.2,0.2,0.3,0.2
		c0.5,0.3,1,0.6,1.6,0.9c0.1,0.1,0.2,0.1,0.3,0.2c0.1,0.1,0.1,0.2,0.1,0.4c0,0.1,0,0.2-0.1,0.3c-0.1,0.1-0.1,0.2-0.2,0.3
		c-0.1,0.1-0.2,0.1-0.3,0.2c-0.1,0-0.2,0-0.3,0c-0.5-0.1-1-0.3-1.6-0.5C8.2,13.2,8,13.1,7.8,13c-0.4-0.1-0.8-0.3-1-0.7
		c-0.1-0.1-0.2-0.2-0.3-0.2c-0.1-0.1-0.3,0-0.4,0.1c-0.2-0.1-0.5-0.1-0.7,0C5,12.2,5,12.2,5,11.9C5,11.5,5,11,5,10.6z M4.7,10.7v1.8
		c0,0.2-0.1,0.3-0.2,0.3c-0.2,0.1-0.3,0.1-0.5,0C4,12.8,4,12.8,3.9,12.6l-0.1-1c-0.1-0.9-0.2-1.7-0.2-2.6c0-0.1,0-0.2,0-0.3
		c0-0.2,0.1-0.3,0.3-0.3h0.6c0.3,0,0.3,0,0.3,0.3C4.7,9.4,4.7,10,4.7,10.7z M24.2,11.1c-0.6,0-1.2-0.1-1.6-0.3
		c-0.5-0.2-0.9-0.6-1.1-1s-0.4-1-0.4-1.5s0.1-1.1,0.4-1.5c0.3-0.4,0.6-0.8,1.1-1c0.5-0.3,1-0.5,1.6-0.5c0.5,0,1,0.1,1.4,0.3
		c0.4,0.2,0.8,0.5,1,0.8l-1,0.9c-0.3-0.5-0.8-0.6-1.3-0.6c-0.3,0-0.6,0.1-0.8,0.2c-0.2,0.1-0.4,0.3-0.6,0.6
		c-0.1,0.2-0.2,0.5-0.2,0.9c0,0.3,0.1,0.6,0.2,0.9c0.1,0.2,0.3,0.4,0.6,0.6c0.2,0.1,0.5,0.2,0.8,0.2c0.5,0,1-0.2,1.3-0.6l1,0.9
		c-0.3,0.3-0.6,0.6-1,0.8S24.7,11.1,24.2,11.1z M31,9.9h-2.4L28.2,11h-1.6L29,5.3h1.6l2.5,5.7h-1.7C31.5,11,31,9.9,31,9.9z
		 M30.5,8.7l-0.8-1.8L29,8.7C29.1,8.7,30.5,8.7,30.5,8.7z M35.5,11.1c-0.5,0-0.9-0.1-1.3-0.2c-0.4-0.1-0.8-0.3-1-0.5l0.5-1.2
		c0.2,0.2,0.5,0.3,0.9,0.4c0.3,0.1,0.6,0.2,1,0.2c0.6,0,0.9-0.2,0.9-0.5c0-0.2-0.1-0.3-0.3-0.3C36,9,35.7,8.9,35.3,8.8
		c-0.4-0.1-0.8-0.2-1-0.3C34,8.4,33.8,8.3,33.5,8c-0.2-0.2-0.3-0.5-0.3-0.9c0-0.3,0.1-0.6,0.3-0.9c0.2-0.3,0.5-0.5,0.9-0.6
		c0.3-0.3,0.8-0.3,1.4-0.3c0.3,0,0.8,0.1,1.1,0.1c0.3,0.1,0.7,0.2,1,0.3l-0.5,1.2c-0.5-0.3-1-0.5-1.6-0.5c-0.3,0-0.6,0.1-0.7,0.2
		c-0.2,0.1-0.2,0.2-0.2,0.3c0,0.1,0.1,0.3,0.2,0.3c0.2,0.1,0.5,0.2,0.8,0.2c0.4,0.1,0.8,0.2,1,0.3c0.3,0.1,0.5,0.3,0.8,0.5
		C37.9,8.5,38,8.8,38,9.2c0,0.3-0.1,0.6-0.3,0.9c-0.2,0.3-0.5,0.5-0.9,0.6C36.5,11,36.1,11.1,35.5,11.1L35.5,11.1z M44.1,5.3V11
		h-1.6V8.8h-2.1V11h-1.6V5.3h1.6v2.1h2.2V5.3H44.1z M22.2,15.6c-0.2,0-0.5-0.1-0.7-0.2c-0.2-0.1-0.3-0.2-0.5-0.5
		c-0.1-0.2-0.2-0.4-0.2-0.6c0-0.2,0.1-0.5,0.2-0.6c0.1-0.2,0.3-0.3,0.5-0.5c0.2-0.1,0.4-0.2,0.7-0.2s0.5,0.1,0.7,0.2
		c0.2,0.1,0.3,0.2,0.5,0.5c0.1,0.2,0.2,0.4,0.2,0.6c0,0.2-0.1,0.5-0.2,0.6c-0.1,0.2-0.3,0.3-0.5,0.5C22.7,15.6,22.5,15.6,22.2,15.6z
		 M22.2,15.1c0.1,0,0.3-0.1,0.4-0.1c0.1-0.1,0.2-0.2,0.3-0.3c0.1-0.1,0.1-0.2,0.1-0.4c0-0.2-0.1-0.3-0.1-0.4
		c-0.1-0.1-0.2-0.2-0.3-0.3c-0.1-0.1-0.2-0.1-0.4-0.1s-0.3,0.1-0.4,0.1c-0.1,0.1-0.2,0.2-0.3,0.3c-0.1,0.1-0.1,0.2-0.1,0.4
		c0,0.2,0.1,0.3,0.1,0.4c0.1,0.1,0.2,0.2,0.3,0.3C22,15.1,22.1,15.1,22.2,15.1z M26.2,13.2v2.4h-0.5l-1.2-1.4v1.4h-0.6v-2.4h0.5
		l1.2,1.4v-1.4H26.2L26.2,13.2z M27.8,13.2h1.1c0.3,0,0.5,0.1,0.7,0.2c0.2,0.1,0.3,0.2,0.5,0.4c0.1,0.2,0.2,0.4,0.2,0.6
		c0,0.2-0.1,0.5-0.2,0.6c-0.1,0.2-0.3,0.3-0.5,0.4c-0.2,0.1-0.4,0.2-0.7,0.2h-1.1V13.2z M28.9,15.1c0.2,0,0.5-0.1,0.6-0.2
		c0.2-0.1,0.2-0.3,0.2-0.6c0-0.2-0.1-0.4-0.2-0.5c-0.1-0.1-0.3-0.2-0.6-0.2h-0.5v1.5H28.9z M32.5,15.1v0.5h-1.9v-2.4h1.8v0.5h-1.3
		v0.5h1.2v0.5h-1.2v0.6C31.2,15.1,32.5,15.1,32.5,15.1z M33,13.2h0.6v2h1.2v0.5H33V13.2z M35,13.2h0.6v2.4H35V13.2L35,13.2z
		 M38.5,13.2l-1,2.4h-0.6l-1-2.4h0.6l0.8,1.7l0.8-1.7C37.9,13.2,38.5,13.2,38.5,13.2z M40.6,15.1v0.5h-1.9v-2.4h1.8v0.5h-1.3v0.5
		h1.2v0.5h-1.2v0.6C39.2,15.1,40.6,15.1,40.6,15.1z M42.5,15.6l-0.5-0.7h-0.5v0.7H41v-2.4h1c0.2,0,0.4,0.1,0.6,0.1
		c0.2,0.1,0.3,0.2,0.3,0.3S43,13.8,43,14s-0.1,0.3-0.1,0.5c-0.1,0.1-0.2,0.2-0.3,0.3l0.5,0.8L42.5,15.6L42.5,15.6z M42.5,14
		c0-0.1-0.1-0.2-0.1-0.3c-0.1-0.1-0.2-0.1-0.4-0.1h-0.5v0.9H42c0.2,0,0.3-0.1,0.4-0.1C42.5,14.3,42.5,14.2,42.5,14z M44.7,14.7v0.9
		h-0.6v-0.9l-0.9-1.6h0.6l0.6,1.1l0.6-1.1h0.6C45.6,13.2,44.7,14.7,44.7,14.7z"/>
</g>
</svg>
