<svg width="38" height="28" viewBox="0 0 38 28" fill="none" xmlns="http://www.w3.org/2000/svg">
<path d="M16.9297 23.9043C15.9751 24.2587 14.962 24.4359 13.949 24.4359C13.8126 24.4359 13.6762 24.4359 13.5593 24.4162C13.4424 24.4162 13.345 24.4162 13.2281 24.4162C11.6696 24.4162 10.111 24.0224 8.72783 23.2939C6.07829 21.9549 4.13011 19.533 3.37031 16.6385C2.4157 12.9957 3.50669 9.11667 6.19519 6.53721C8.06544 4.62722 10.676 3.54424 13.3255 3.54424C13.4035 3.54424 13.4814 3.54424 13.5398 3.54424C13.6178 3.54424 13.6957 3.54424 13.7541 3.54424C14.7088 3.54424 15.6634 3.70176 16.579 3.97743C16.8712 4.07588 17.0855 4.09557 18.5272 4.09557C18.9363 4.09557 19.4429 4.09557 20.0663 4.09557L22.4625 4.07588L22.2482 3.87898C20.3975 2.22497 18.1376 1.14199 15.7218 0.708794C14.8841 0.610341 14.0269 0.55127 13.1892 0.55127C12.7021 0.55127 12.1956 0.57096 11.728 0.610341C8.76679 1.00415 5.98088 2.38249 3.87684 4.52877C1.88969 6.51751 0.564927 9.13636 0.136326 11.9324C-0.13642 13.9015 -4.72876e-05 15.8705 0.506481 17.7608C1.59747 21.502 4.20804 24.5935 7.69529 26.2278C9.00057 26.8382 10.3838 27.232 11.7865 27.4289C12.254 27.4683 12.7411 27.488 13.2281 27.488C14.0659 27.488 14.9036 27.4289 15.7218 27.3108C18.3908 26.8185 20.8261 25.578 22.7743 23.6877H17.5336L16.9297 23.9043Z" fill="#D82438"/>
<path d="M24.9563 6.36002C15.0985 6.36002 12.1177 6.37971 11.7281 6.45848C10.6371 6.67507 9.60457 7.08857 8.68892 7.71867C7.92913 8.2897 7.24726 8.97887 6.70177 9.76649L6.62384 9.88464L20.3975 9.90433C23.4172 9.90433 25.8135 9.90433 27.7032 9.90433C33.2945 9.90433 34.7167 9.88464 34.9505 9.80587C36.1389 9.43175 37.2688 7.8762 37.4052 6.49786L37.4247 6.34033L24.9563 6.36002Z" fill="#D82438"/>
<path d="M5.53282 12.6415C5.39644 13.5276 5.41593 14.4334 5.5523 15.3194L5.61074 15.6148L18.3129 15.6345L30.2163 15.6542C31.6385 15.6542 32.71 15.0438 33.4114 13.823C33.762 13.2126 33.9374 12.5825 33.9958 12.228H5.61074L5.53282 12.6415Z" fill="#D82438"/>
<path d="M6.64325 18.0166C7.20822 18.9617 9.02004 21.4231 12.4683 21.4231H24.2159C27.8785 21.4231 29.8072 18.9224 30.4306 17.9575H18.5467C12.6047 17.9575 7.9875 17.9772 6.64325 18.0166Z" fill="#D82438"/>
</svg>