<svg xmlns="http://www.w3.org/2000/svg" width="123" height="42" fill="none" viewBox="0 0 123 42">
    <g filter="url(#filter0_d)">
        <path fill="#000" d="M114.741 34H8.259C5.917 34 4 32.087 4 29.75V4.25C4 1.913 5.917 0 8.26 0H114.74C117.083 0 119 1.913 119 4.25v25.5c0 2.337-1.917 4.25-4.259 4.25z"/>
        <path fill="#A6A6A6" d="M114.741.68c1.976 0 3.578 1.598 3.578 3.57v25.5c0 1.972-1.602 3.57-3.578 3.57H8.259c-1.976 0-3.578-1.598-3.578-3.57V4.25C4.681 2.278 6.283.68 8.26.68h106.482zm0-.68H8.259C5.917 0 4 1.913 4 4.25v25.5C4 32.087 5.917 34 8.26 34H114.74c2.342 0 4.259-1.913 4.259-4.25V4.25c0-2.337-1.917-4.25-4.259-4.25z"/>
        <path fill="#fff" stroke="#fff" stroke-miterlimit="10" stroke-width=".2" d="M44.395 8.704c0 .714-.213 1.284-.639 1.7-.477.502-1.107.757-1.874.757-.741 0-1.363-.255-1.883-.765s-.775-1.148-.775-1.896c0-.756.256-1.385.775-1.895.52-.51 1.142-.765 1.883-.765.366 0 .715.068 1.048.212.332.145.596.332.8.57l-.451.45c-.34-.4-.8-.603-1.397-.603-.537 0-1.005.187-1.397.57-.392.373-.588.866-.588 1.47 0 .603.196 1.096.588 1.47.392.374.86.57 1.397.57.57 0 1.048-.187 1.431-.57.247-.246.392-.595.426-1.037h-1.857v-.62h2.479c.017.136.034.263.034.382zM48.322 6.58h-2.326v1.614h2.096v.612h-2.096v1.615h2.326v.63H45.34v-5.1h2.982v.628zM51.09 11.05h-.656V6.58h-1.43v-.63h3.509v.63h-1.431v4.47h.008zM55.06 11.05v-5.1h.656v5.1h-.656zM58.63 11.05h-.657V6.58h-1.43v-.63h3.509v.63H58.62v4.47h.008zM66.705 10.387c-.503.519-1.125.774-1.874.774-.75 0-1.372-.255-1.874-.774-.503-.518-.75-1.147-.75-1.887s.247-1.377.75-1.887c.502-.518 1.124-.773 1.874-.773.74 0 1.363.255 1.874.773.502.519.758 1.148.758 1.887-.009.748-.256 1.377-.758 1.887zm-3.263-.425c.375.383.844.57 1.389.57s1.013-.187 1.388-.57c.375-.382.571-.867.571-1.462s-.187-1.08-.57-1.462c-.376-.382-.844-.578-1.39-.578-.544 0-1.013.187-1.388.57-.375.39-.57.875-.57 1.47s.195 1.08.57 1.462zM68.383 11.05v-5.1h.8l2.488 3.97h.026l-.026-.986V5.95h.656v5.1h-.681l-2.599-4.156h-.025l.025.986v3.17h-.664z"/>
        <path fill="#fff" d="M62.045 18.487c-2.002 0-3.637 1.522-3.637 3.613 0 2.082 1.635 3.612 3.637 3.612s3.638-1.53 3.638-3.612c0-2.091-1.636-3.613-3.638-3.613zm0 5.806c-1.099 0-2.044-.901-2.044-2.193 0-1.3.945-2.193 2.044-2.193 1.099 0 2.045.892 2.045 2.193 0 1.292-.955 2.193-2.045 2.193zm-7.94-5.806c-2.001 0-3.636 1.522-3.636 3.613 0 2.082 1.635 3.612 3.637 3.612s3.637-1.53 3.637-3.612c0-2.091-1.635-3.613-3.637-3.613zm0 5.806c-1.098 0-2.044-.901-2.044-2.193 0-1.3.946-2.193 2.045-2.193s2.044.892 2.044 2.193c0 1.292-.945 2.193-2.044 2.193zM44.668 19.6v1.53h3.68c-.11.858-.4 1.496-.834 1.93-.537.535-1.372 1.121-2.837 1.121-2.266 0-4.038-1.819-4.038-4.08 0-2.26 1.772-4.08 4.038-4.08 1.218 0 2.112.476 2.768 1.097l1.082-1.08c-.92-.875-2.138-1.547-3.859-1.547-3.1 0-5.707 2.516-5.707 5.619 0 3.094 2.607 5.618 5.707 5.618 1.678 0 2.94-.544 3.927-1.572 1.014-1.012 1.33-2.44 1.33-3.587 0-.357-.026-.689-.086-.96h-5.17v-.01zm38.598 1.19c-.298-.808-1.218-2.304-3.101-2.304-1.865 0-3.416 1.462-3.416 3.613 0 2.023 1.533 3.612 3.595 3.612 1.661 0 2.624-1.011 3.016-1.598l-1.236-.824c-.409.603-.97 1.003-1.78 1.003s-1.389-.374-1.755-1.097l4.847-1.997-.17-.408zm-4.941 1.207c-.043-1.394 1.082-2.108 1.891-2.108.63 0 1.167.314 1.346.765l-3.237 1.343zM74.388 25.5h1.593V14.875h-1.593V25.5zm-2.606-6.205h-.06c-.358-.425-1.04-.808-1.908-.808-1.814 0-3.475 1.59-3.475 3.63 0 2.023 1.66 3.604 3.475 3.604.86 0 1.55-.383 1.908-.825h.051v.519c0 1.385-.74 2.125-1.933 2.125-.972 0-1.576-.697-1.823-1.284l-1.389.578c.4.96 1.457 2.134 3.212 2.134 1.865 0 3.441-1.097 3.441-3.766v-6.494h-1.508v.587h.009zm-1.832 4.998c-1.099 0-2.019-.918-2.019-2.176 0-1.275.92-2.202 2.02-2.202 1.081 0 1.933.935 1.933 2.202.009 1.258-.843 2.176-1.934 2.176zm20.777-9.418h-3.808V25.5h1.593v-4.03h2.224c1.763 0 3.492-1.274 3.492-3.297s-1.746-3.298-3.501-3.298zm.034 5.117h-2.257v-3.647h2.257c1.193 0 1.866.986 1.866 1.82 0 .832-.673 1.827-1.866 1.827zm9.83-1.522c-1.15 0-2.342.51-2.836 1.624l1.414.586c.298-.586.86-.782 1.448-.782.826 0 1.661.493 1.67 1.369v.11c-.29-.161-.903-.408-1.661-.408-1.525 0-3.067.833-3.067 2.389 0 1.42 1.244 2.337 2.641 2.337 1.064 0 1.661-.476 2.027-1.037h.051v.825h1.533V21.41c.009-1.887-1.405-2.94-3.22-2.94zm-.195 5.823c-.52 0-1.244-.264-1.244-.901 0-.816.903-1.13 1.686-1.13.699 0 1.031.152 1.449.356-.12.978-.971 1.675-1.891 1.675zm9.012-5.593l-1.823 4.607h-.051l-1.891-4.607h-1.712l2.836 6.443-1.618 3.578h1.661l4.37-10.021h-1.772zm-14.311 6.8h1.593V14.875h-1.593V25.5z"/>
        <path fill="url(#paint0_linear)" d="M12.893 6.41c-.247.263-.392.67-.392 1.19V26.4c0 .527.145.935.392 1.19l.06.06 10.554-10.523v-.255L12.953 6.35l-.06.06z"/>
        <path fill="url(#paint1_linear)" d="M27.026 20.638l-3.519-3.51v-.255l3.518-3.51.077.042 4.166 2.363c1.192.671 1.192 1.776 0 2.456l-4.166 2.363-.076.051z"/>
        <path fill="url(#paint2_linear)" d="M27.102 20.596L23.507 17 12.893 27.591c.392.416 1.04.467 1.772.051l12.437-7.046z"/>
        <path fill="url(#paint3_linear)" d="M27.102 13.413L14.657 6.358c-.733-.416-1.38-.365-1.772.051L23.507 17l3.595-3.587z"/>
        <path fill="#000" d="M27.026 20.51l-12.37 7.013c-.69.391-1.311.366-1.703.009l-.06.059.06.06c.4.357 1.014.382 1.704-.009l12.445-7.055-.076-.076z" opacity=".2"/>
        <path fill="#000" d="M12.893 27.472c-.247-.264-.392-.672-.392-1.19v.128c0 .526.145.934.392 1.19l.06-.06-.06-.068zM31.268 18.105l-4.25 2.405.076.077 4.165-2.363c.597-.34.895-.782.895-1.224-.043.4-.341.799-.886 1.105z" opacity=".12"/>
        <path fill="#fff" d="M14.657 6.476l16.61 9.418c.537.306.844.697.895 1.105 0-.442-.298-.892-.894-1.224L14.657 6.357c-1.193-.671-2.164-.11-2.164 1.25v.127c0-1.368.98-1.93 2.164-1.258z" opacity=".25"/>
    </g>
    <defs>
        <linearGradient id="paint0_linear" x1="22.57" x2="8.305" y1="7.403" y2="21.7" gradientUnits="userSpaceOnUse">
            <stop stop-color="#00A0FF"/>
            <stop offset=".007" stop-color="#00A1FF"/>
            <stop offset=".26" stop-color="#00BEFF"/>
            <stop offset=".512" stop-color="#00D2FF"/>
            <stop offset=".76" stop-color="#00DFFF"/>
            <stop offset="1" stop-color="#00E3FF"/>
        </linearGradient>
        <linearGradient id="paint1_linear" x1="32.822" x2="12.21" y1="17.001" y2="17.001" gradientUnits="userSpaceOnUse">
            <stop stop-color="#FFE000"/>
            <stop offset=".409" stop-color="#FFBD00"/>
            <stop offset=".775" stop-color="orange"/>
            <stop offset="1" stop-color="#FF9C00"/>
        </linearGradient>
        <linearGradient id="paint2_linear" x1="25.149" x2="5.804" y1="18.952" y2="38.338" gradientUnits="userSpaceOnUse">
            <stop stop-color="#FF3A44"/>
            <stop offset="1" stop-color="#C31162"/>
        </linearGradient>
        <linearGradient id="paint3_linear" x1="10.216" x2="18.854" y1=".15" y2="8.807" gradientUnits="userSpaceOnUse">
            <stop stop-color="#32A071"/>
            <stop offset=".069" stop-color="#2DA771"/>
            <stop offset=".476" stop-color="#15CF74"/>
            <stop offset=".801" stop-color="#06E775"/>
            <stop offset="1" stop-color="#00F076"/>
        </linearGradient>
        <filter id="filter0_d" width="123" height="42" x="0" y="0" color-interpolation-filters="sRGB" filterUnits="userSpaceOnUse">
            <feFlood flood-opacity="0" result="BackgroundImageFix"/>
            <feColorMatrix in="SourceAlpha" values="0 0 0 0 0 0 0 0 0 0 0 0 0 0 0 0 0 0 127 0"/>
            <feOffset dy="4"/>
            <feGaussianBlur stdDeviation="2"/>
            <feColorMatrix values="0 0 0 0 0 0 0 0 0 0 0 0 0 0 0 0 0 0 0.25 0"/>
            <feBlend in2="BackgroundImageFix" result="effect1_dropShadow"/>
            <feBlend in="SourceGraphic" in2="effect1_dropShadow" result="shape"/>
        </filter>
    </defs>
</svg>
