<svg xmlns="http://www.w3.org/2000/svg" width="61" height="19" fill="none" viewBox="0 0 61 19">
    <path fill="#5C6D84" d="M24.411.313l-3.1 18.183h4.955l3.1-18.183h-4.955zM17.16.333l-4.853 12.4-.517-1.872c-1.577-3.078-3.947-5.68-6.865-7.538L9.36 18.486l5.243-.01L22.403.33 17.16.333z"/>
    <path fill="#5C6D84" d="M9.906 1.634c-.121-.465-.407-.87-.803-1.142C8.706.22 8.224.102 7.747.157H.064L0 .519c5.979 1.45 9.935 4.945 11.577 9.147L9.906 1.634zM39.412 3.798c1.272-.027 2.535.211 3.709.7l.447.21.67-3.941c-1.423-.515-2.926-.773-4.439-.763-4.9 0-8.348 2.466-8.375 6-.032 2.612 2.459 4.07 4.34 4.94 1.931.892 2.578 1.459 2.569 2.256-.015 1.217-1.54 1.775-2.963 1.775-1.608.048-3.205-.278-4.666-.952l-.639-.291-.7 4.07c1.767.652 3.637.98 5.521.969 5.209 0 8.594-2.437 8.63-6.213.022-2.066-1.3-3.643-4.164-4.936-1.733-.844-2.794-1.4-2.784-2.256.005-.76.905-1.568 2.844-1.568zM56.957.333h-3.829c-.539-.07-1.086.04-1.556.312-.47.273-.838.694-1.044 1.197l-7.354 16.664h5.2s.85-2.241 1.041-2.731l6.346.008c.148.635.6 2.724.6 2.724h4.6L56.957.333zm-6.11 11.719c.407-1.044 1.973-5.082 1.973-5.082-.027.05.4-1.052.66-1.736l.334 1.568 1.148 5.25h-4.116z"/>
</svg>
